<?xml version="1.0" encoding="UTF-8" standalone="no"?>
<!DOCTYPE svg PUBLIC "-//W3C//DTD SVG 1.1//EN"
 "http://www.w3.org/Graphics/SVG/1.1/DTD/svg11.dtd">
<!-- Generated by graphviz version 2.38.0 (20140413.2041)
 -->
<!-- Title: %3 Pages: 1 -->
<svg width="175pt" height="218pt"
 viewBox="0.00 0.00 175.45 218.00" xmlns="http://www.w3.org/2000/svg" xmlns:xlink="http://www.w3.org/1999/xlink">
<g id="graph0" class="graph" transform="scale(1 1) rotate(0) translate(4 214)">
<title>%3</title>
<polygon fill="white" stroke="none" points="-4,4 -4,-214 171.446,-214 171.446,4 -4,4"/>
<!-- A -->
<g id="node1" class="node"><title>A</title>
<ellipse fill="none" stroke="black" cx="89" cy="-192" rx="39.7935" ry="18"/>
<text text-anchor="middle" x="89" y="-188.3" font-family="Times New Roman,serif" font-size="14.00">Node A</text>
</g>
<!-- B -->
<g id="node2" class="node"><title>B</title>
<ellipse fill="none" stroke="black" cx="46" cy="-105" rx="38.9931" ry="18"/>
<text text-anchor="middle" x="46" y="-101.3" font-family="Times New Roman,serif" font-size="14.00">Node B</text>
</g>
<!-- A&#45;&gt;B -->
<g id="edge1" class="edge"><title>A&#45;&gt;B</title>
<path fill="none" stroke="black" d="M80.3549,-174.285C77.3763,-168.501 74.0286,-161.972 71,-156 67.0055,-148.123 62.6919,-139.528 58.7908,-131.721"/>
<polygon fill="black" stroke="black" points="61.8817,-130.077 54.2861,-122.69 55.6177,-133.201 61.8817,-130.077"/>
<text text-anchor="middle" x="89" y="-144.8" font-family="Times New Roman,serif" font-size="14.00">Edge1</text>
</g>
<!-- C -->
<g id="node3" class="node"><title>C</title>
<ellipse fill="none" stroke="black" cx="120" cy="-18" rx="47.3916" ry="18"/>
<text text-anchor="middle" x="120" y="-14.3" font-family="Times New Roman,serif" font-size="14.00">中文的標籤</text>
</g>
<!-- A&#45;&gt;C -->
<g id="edge2" class="edge"><title>A&#45;&gt;C</title>
<path fill="none" stroke="black" d="M99.1448,-174.452C102.165,-168.791 105.157,-162.295 107,-156 117.786,-119.159 120.154,-74.5969 120.421,-46.5174"/>
<polygon fill="black" stroke="black" points="123.922,-46.2668 120.432,-36.2632 116.922,-46.2596 123.922,-46.2668"/>
<text text-anchor="middle" x="136" y="-101.3" font-family="Times New Roman,serif" font-size="14.00">Edge2</text>
</g>
<!-- B&#45;&gt;C -->
<g id="edge3" class="edge"><title>B&#45;&gt;C</title>
<path fill="none" stroke="black" d="M47.9633,-86.8057C49.8753,-76.4244 53.6331,-63.4254 61,-54 66.2714,-47.2555 73.2337,-41.5393 80.5217,-36.8055"/>
<polygon fill="black" stroke="black" points="82.3253,-39.8052 89.1451,-31.6971 78.7575,-33.7826 82.3253,-39.8052"/>
<text text-anchor="middle" x="84" y="-57.8" font-family="Times New Roman,serif" font-size="14.00">某種關聯</text>
</g>
<!-- D -->
<g id="node4" class="node"><title>D</title>
<ellipse fill="none" stroke="black" cx="27" cy="-18" rx="27" ry="18"/>
<text text-anchor="middle" x="27" y="-14.3" font-family="Times New Roman,serif" font-size="14.00">D</text>
</g>
<!-- B&#45;&gt;D -->
<g id="edge4" class="edge"><title>B&#45;&gt;D</title>
<path fill="none" stroke="black" d="M42.1551,-86.799C39.5369,-75.086 36.0177,-59.3423 33.0296,-45.9744"/>
<polygon fill="black" stroke="black" points="36.3716,-44.881 30.7744,-35.8854 29.5402,-46.4081 36.3716,-44.881"/>
</g>
</g>
</svg>
