<?xml version="1.0" encoding="UTF-8" standalone="no"?>
<!DOCTYPE svg PUBLIC "-//W3C//DTD SVG 1.1//EN"
 "http://www.w3.org/Graphics/SVG/1.1/DTD/svg11.dtd">
<!-- Generated by graphviz version 2.38.0 (20140413.2041)
 -->
<!-- Title: %3 Pages: 1 -->
<svg width="130pt" height="260pt"
 viewBox="0.00 0.00 129.62 260.00" xmlns="http://www.w3.org/2000/svg" xmlns:xlink="http://www.w3.org/1999/xlink">
<g id="graph0" class="graph" transform="scale(1 1) rotate(0) translate(4 256)">
<title>%3</title>
<polygon fill="white" stroke="none" points="-4,4 -4,-256 125.616,-256 125.616,4 -4,4"/>
<!-- Toyota -->
<g id="node1" class="node"><title>Toyota</title>
<ellipse fill="none" stroke="black" cx="74.5975" cy="-234" rx="37.0935" ry="18"/>
<text text-anchor="middle" x="74.5975" y="-230.3" font-family="Times New Roman,serif" font-size="14.00">Toyota</text>
</g>
<!-- Lexus -->
<g id="node2" class="node"><title>Lexus</title>
<ellipse fill="none" stroke="black" cx="74.5975" cy="-162" rx="32.4942" ry="18"/>
<text text-anchor="middle" x="74.5975" y="-158.3" font-family="Times New Roman,serif" font-size="14.00">Lexus</text>
</g>
<!-- Toyota&#45;&#45;Lexus -->
<g id="edge1" class="edge"><title>Toyota&#45;&#45;Lexus</title>
<path fill="none" stroke="black" d="M74.5975,-215.697C74.5975,-204.846 74.5975,-190.917 74.5975,-180.104"/>
</g>
<!-- Ford -->
<g id="node3" class="node"><title>Ford</title>
<ellipse fill="none" stroke="black" cx="28.5975" cy="-90" rx="28.6953" ry="18"/>
<text text-anchor="middle" x="28.5975" y="-86.3" font-family="Times New Roman,serif" font-size="14.00">Ford</text>
</g>
<!-- Toyota&#45;&#45;Ford -->
<g id="edge2" class="edge"><title>Toyota&#45;&#45;Ford</title>
<path fill="none" stroke="black" d="M58.4216,-217.418C49.3765,-207.614 38.8864,-194.168 33.5975,-180 24.7215,-156.222 25.1658,-126.384 26.6316,-108.009"/>
</g>
<!-- Honda -->
<g id="node4" class="node"><title>Honda</title>
<ellipse fill="none" stroke="black" cx="85.5975" cy="-18" rx="35.194" ry="18"/>
<text text-anchor="middle" x="85.5975" y="-14.3" font-family="Times New Roman,serif" font-size="14.00">Honda</text>
</g>
<!-- Toyota&#45;&#45;Honda -->
<g id="edge3" class="edge"><title>Toyota&#45;&#45;Honda</title>
<path fill="none" stroke="black" d="M91.0638,-217.522C100.212,-207.755 110.708,-194.311 115.597,-180 132.971,-129.148 108.339,-65.6279 94.2566,-35.862"/>
</g>
<!-- Lexus&#45;&#45;Ford -->
<g id="edge4" class="edge"><title>Lexus&#45;&#45;Ford</title>
<path fill="none" stroke="black" d="M63.9285,-144.765C56.4971,-133.456 46.6273,-118.437 39.2086,-107.147"/>
</g>
<!-- Lexus&#45;&#45;Honda -->
<g id="edge5" class="edge"><title>Lexus&#45;&#45;Honda</title>
<path fill="none" stroke="black" d="M75.9243,-143.871C78.0386,-116.578 82.1487,-63.5205 84.2659,-36.1893"/>
</g>
<!-- Ford&#45;&#45;Honda -->
<g id="edge6" class="edge"><title>Ford&#45;&#45;Honda</title>
<path fill="none" stroke="black" d="M41.2476,-73.4647C50.5623,-62.0257 63.189,-46.5192 72.5875,-34.9772"/>
</g>
</g>
</svg>
