<?xml version="1.0" encoding="UTF-8" standalone="no"?>
<!DOCTYPE svg PUBLIC "-//W3C//DTD SVG 1.1//EN"
 "http://www.w3.org/Graphics/SVG/1.1/DTD/svg11.dtd">
<!-- Generated by graphviz version 2.38.0 (20140413.2041)
 -->
<!-- Title: %3 Pages: 1 -->
<svg width="477pt" height="136pt"
 viewBox="0.00 0.00 477.00 136.00" xmlns="http://www.w3.org/2000/svg" xmlns:xlink="http://www.w3.org/1999/xlink">
<g id="graph0" class="graph" transform="scale(1 1) rotate(0) translate(4 132)">
<title>%3</title>
<polygon fill="#c0ffee" stroke="none" points="-4,4 -4,-132 473,-132 473,4 -4,4"/>
<text text-anchor="middle" x="234.5" y="-9.6" font-family="Microsoft Yahei" font-size="18.00" fill="#000000">graphviz於python的使用</text>
<!-- A -->
<g id="node1" class="node"><title>A</title>
<polygon fill="#ffc0ee" stroke="red" points="469,-77 401,-77 401,-41 469,-41 469,-77"/>
<text text-anchor="middle" x="435" y="-55.3" font-family="Microsoft Yahei" font-size="14.00" fill="green">Node A</text>
</g>
<!-- B -->
<g id="node2" class="node"><title>B</title>
<polygon fill="#ffc0ee" stroke="red" points="291,-116 223,-116 223,-80 291,-80 291,-116"/>
<text text-anchor="middle" x="257" y="-94.3" font-family="Microsoft Yahei" font-size="14.00" fill="green">Node B</text>
</g>
<!-- A&#45;&gt;B -->
<g id="edge1" class="edge"><title>A&#45;&gt;B</title>
<path fill="none" stroke="#002288" stroke-dasharray="1,5" d="M400.896,-66.3356C372.715,-72.5802 332.029,-81.5959 301.272,-88.4113"/>
<polygon fill="#002288" stroke="#002288" points="291.255,-90.6311 300.044,-84.0742 296.136,-89.5493 301.018,-88.4676 301.018,-88.4676 301.018,-88.4676 296.136,-89.5493 301.991,-92.861 291.255,-90.6311 291.255,-90.6311"/>
<text text-anchor="middle" x="347" y="-91.8" font-family="Microsoft Yahei" font-size="24.00" fill="#220088">Edge1</text>
</g>
<!-- C -->
<g id="node3" class="node"><title>C</title>
<polygon fill="#ffc0ee" stroke="red" points="88,-64 0,-64 0,-28 88,-28 88,-64"/>
<text text-anchor="middle" x="44" y="-42.3" font-family="Microsoft Yahei" font-size="14.00" fill="green">中文的標籤</text>
</g>
<!-- A&#45;&gt;C -->
<g id="edge2" class="edge"><title>A&#45;&gt;C</title>
<path fill="none" stroke="#002288" stroke-dasharray="1,5" d="M400.737,-54.7597C372.209,-51.348 329.977,-46.8312 293,-45 225.954,-41.6796 148.587,-42.7745 98.3393,-44.1383"/>
<polygon fill="#002288" stroke="#002288" points="88.042,-44.4319 97.9096,-39.6486 93.0399,-44.2893 98.0379,-44.1468 98.0379,-44.1468 98.0379,-44.1468 93.0399,-44.2893 98.1662,-48.6449 88.042,-44.4319 88.042,-44.4319"/>
<text text-anchor="middle" x="257" y="-51.8" font-family="Microsoft Yahei" font-size="24.00" fill="#220088">Edge2</text>
</g>
<!-- B&#45;&gt;C -->
<g id="edge3" class="edge"><title>B&#45;&gt;C</title>
<path fill="none" stroke="#002288" stroke-dasharray="1,5" d="M224.462,-79.9042C217.56,-76.5248 210.17,-73.3287 203,-71 169.065,-59.978 129.396,-53.7224 98.2966,-50.2251"/>
<polygon fill="#002288" stroke="#002288" points="88.0988,-49.142 98.5182,-45.7235 93.0708,-49.6701 98.0429,-50.1983 98.0429,-50.1983 98.0429,-50.1983 93.0708,-49.6701 97.5675,-54.6731 88.0988,-49.142 88.0988,-49.142"/>
<text text-anchor="middle" x="154.5" y="-77.8" font-family="Microsoft Yahei" font-size="24.00" fill="#220088">某種關聯</text>
</g>
<!-- D -->
<g id="node4" class="node"><title>D</title>
<polygon fill="#ffc0ee" stroke="red" points="71,-128 17,-128 17,-92 71,-92 71,-128"/>
<text text-anchor="middle" x="44" y="-106.3" font-family="Microsoft Yahei" font-size="14.00" fill="green">D</text>
</g>
<!-- B&#45;&gt;D -->
<g id="edge4" class="edge"><title>B&#45;&gt;D</title>
<path fill="none" stroke="#002288" stroke-dasharray="1,5" d="M222.566,-99.9014C184.058,-102.091 121.012,-105.677 81.3237,-107.934"/>
<polygon fill="#002288" stroke="#002288" points="71.2776,-108.506 81.0059,-103.445 76.2695,-108.222 81.2614,-107.938 81.2614,-107.938 81.2614,-107.938 76.2695,-108.222 81.517,-112.43 71.2776,-108.506 71.2776,-108.506"/>
</g>
</g>
</svg>
